<svg xmlns="http://www.w3.org/2000/svg" viewBox="0 0 323.82 778.11"><defs><style>.cls-1{fill:none;stroke:#040000;stroke-width:10px;}</style></defs><g id="圖層_2" data-name="圖層 2"><g id="圖層_1-2" data-name="圖層 1"><path class="cls-1" d="M95,188.54C41.87,209.23,5,254.86,5,307.83v389.7s.46,23.32,8.72,35.85c17.62,26.74,69.84,40.32,145.2,39.71,75.36.61,127.57-13,145.19-39.71,8.26-12.53,8.72-35.85,8.72-35.85V307.83c0-53-37-98.74-90.18-119.38"/><path class="cls-1" d="M227.9,185.53c0,4.22-31,7.64-69.27,7.64s-69.27-3.42-69.27-7.64v-75.6c0-4.21,31-7.63,69.27-7.63s69.27,3.42,69.27,7.63Z"/><path class="cls-1" d="M102.09,5.17s-3.84,4.48-4.33,9.64.3,7.33,1.36,8.09,20.78,1.48,24.19,2.17,36.69,8.54,53.09,8.2,58.1.45,75.88,2S292.15,44,292.15,44l7.29-.46,15.84-18S283,13.45,268.57,11.85,205.22,4.9,189.39,5.7,159.77,8,145.76,7.64,102.09,5.17,102.09,5.17Z"/><path class="cls-1" d="M125.69,26.28V99.73c0,2.64,15.06,4.78,33.64,4.78S193,102.37,193,99.73V33.88"/><path class="cls-1" d="M312.83,356.84c0,10-68.91,18.07-153.91,18.07S5,366.82,5,356.84"/><path class="cls-1" d="M312.83,580.47c0,10-68.91,18.07-153.91,18.07S5,590.45,5,580.47"/></g></g></svg>